<svg data-v-423bf9ae="" xmlns="http://www.w3.org/2000/svg" viewBox="0 0 408 91" class="iconLeft"><!----><!----><!----><g data-v-423bf9ae="" id="41a1527c-c1af-4a50-9f4e-5e3261691220" fill="black" transform="matrix(6.43776798248291,0,0,6.43776798248291,137.21275329589844,-9.334765434265137)"><path d="M2.03 5.82L2.03 5.82Q2.03 6.37 2.30 6.78L2.30 6.78L2.30 6.78Q2.56 7.18 2.94 7.46L2.94 7.46L2.94 7.46Q3.32 7.73 4.00 8.15L4.00 8.15L4.00 8.15Q4.73 8.58 5.14 8.88L5.14 8.88L5.14 8.88Q5.54 9.17 5.83 9.63L5.83 9.63L5.83 9.63Q6.12 10.08 6.12 10.71L6.12 10.71L6.12 10.71Q6.12 11.38 5.78 11.93L5.78 11.93L5.78 11.93Q5.45 12.47 4.79 12.79L4.79 12.79L4.79 12.79Q4.14 13.10 3.23 13.10L3.23 13.10L3.23 13.10Q2.16 13.10 1.26 12.61L1.26 12.61L1.26 12.61Q1.19 12.57 1.17 12.52L1.17 12.52L1.17 12.52Q1.15 12.46 1.13 12.35L1.13 12.35L0.95 10.44L0.95 10.44Q0.94 10.39 1.02 10.37L1.02 10.37L1.02 10.37Q1.09 10.36 1.11 10.42L1.11 10.42L1.11 10.42Q1.33 11.42 1.94 12.15L1.94 12.15L1.94 12.15Q2.55 12.88 3.56 12.88L3.56 12.88L3.56 12.88Q4.26 12.88 4.74 12.49L4.74 12.49L4.74 12.49Q5.22 12.11 5.22 11.27L5.22 11.27L5.22 11.27Q5.22 10.64 4.94 10.18L4.94 10.18L4.94 10.18Q4.66 9.72 4.26 9.41L4.26 9.41L4.26 9.41Q3.86 9.11 3.18 8.71L3.18 8.71L3.18 8.71Q2.51 8.30 2.12 8.01L2.12 8.01L2.12 8.01Q1.74 7.71 1.47 7.27L1.47 7.27L1.47 7.27Q1.20 6.82 1.20 6.22L1.20 6.22L1.20 6.22Q1.20 5.52 1.57 5.02L1.57 5.02L1.57 5.02Q1.95 4.52 2.54 4.28L2.54 4.28L2.54 4.28Q3.14 4.03 3.81 4.03L3.81 4.03L3.81 4.03Q4.63 4.03 5.45 4.37L5.45 4.37L5.45 4.37Q5.66 4.44 5.66 4.61L5.66 4.61L5.75 6.22L5.75 6.22Q5.75 6.27 5.68 6.27L5.68 6.27L5.68 6.27Q5.61 6.27 5.60 6.22L5.60 6.22L5.60 6.22Q5.49 5.49 5.00 4.87L5.00 4.87L5.00 4.87Q4.51 4.24 3.58 4.24L3.58 4.24L3.58 4.24Q2.80 4.24 2.42 4.70L2.42 4.70L2.42 4.70Q2.03 5.15 2.03 5.82L2.03 5.82ZM7.32 10.63L7.32 10.63Q7.29 10.64 7.27 10.53L7.27 10.53L7.27 10.53Q7.25 10.42 7.25 10.30L7.25 10.30L7.25 10.30Q7.25 10.04 7.29 10.04L7.29 10.04L10.95 9.38L10.95 9.38Q10.98 9.37 11.00 9.46L11.00 9.46L11.00 9.46Q11.02 9.55 11.02 9.66L11.02 9.66L11.02 9.66Q11.02 9.94 10.95 9.97L10.95 9.97L7.32 10.63ZM14.04 4.44L14.04 4.44Q13.16 4.44 12.72 4.89L12.72 4.89L12.72 4.89Q12.28 5.33 12.08 6.41L12.08 6.41L12.08 6.41Q12.08 6.44 12.01 6.44L12.01 6.44L12.01 6.44Q11.93 6.44 11.93 6.41L11.93 6.41L11.93 6.41Q11.98 5.91 12.05 5.10L12.05 5.10L12.05 5.10Q12.12 4.28 12.12 3.88L12.12 3.88L12.12 3.88Q12.12 3.81 12.20 3.81L12.20 3.81L12.20 3.81Q12.28 3.81 12.28 3.88L12.28 3.88L12.28 3.88Q12.28 4.19 13.03 4.19L13.03 4.19L13.03 4.19Q14.22 4.23 15.85 4.23L15.85 4.23L15.85 4.23Q16.67 4.23 17.60 4.20L17.60 4.20L18.55 4.19L18.55 4.19Q19.05 4.19 19.30 4.12L19.30 4.12L19.30 4.12Q19.54 4.05 19.61 3.84L19.61 3.84L19.61 3.84Q19.63 3.78 19.70 3.78L19.70 3.78L19.70 3.78Q19.77 3.78 19.77 3.84L19.77 3.84L19.77 3.84Q19.73 4.24 19.68 5.07L19.68 5.07L19.68 5.07Q19.64 5.89 19.64 6.41L19.64 6.41L19.64 6.41Q19.64 6.44 19.56 6.44L19.56 6.44L19.56 6.44Q19.47 6.44 19.47 6.41L19.47 6.41L19.47 6.41Q19.43 5.32 19.03 4.88L19.03 4.88L19.03 4.88Q18.62 4.44 17.68 4.44L17.68 4.44L17.68 4.44Q17.05 4.44 16.79 4.49L16.79 4.49L16.79 4.49Q16.52 4.55 16.42 4.73L16.42 4.73L16.42 4.73Q16.32 4.91 16.32 5.35L16.32 5.35L16.32 11.80L16.32 11.80Q16.32 12.24 16.42 12.43L16.42 12.43L16.42 12.43Q16.52 12.63 16.80 12.70L16.80 12.70L16.80 12.70Q17.08 12.77 17.68 12.77L17.68 12.77L17.68 12.77Q17.72 12.77 17.72 12.85L17.72 12.85L17.72 12.85Q17.72 12.94 17.68 12.94L17.68 12.94L17.68 12.94Q17.22 12.94 16.94 12.92L16.94 12.92L15.85 12.91L14.80 12.92L14.80 12.92Q14.52 12.94 14.03 12.94L14.03 12.94L14.03 12.94Q14 12.94 14 12.85L14 12.85L14 12.85Q14 12.77 14.03 12.77L14.03 12.77L14.03 12.77Q14.63 12.77 14.91 12.70L14.91 12.70L14.91 12.70Q15.19 12.63 15.30 12.43L15.30 12.43L15.30 12.43Q15.40 12.22 15.40 11.80L15.40 11.80L15.40 5.32L15.40 5.32Q15.40 4.89 15.30 4.71L15.30 4.71L15.30 4.71Q15.20 4.54 14.94 4.49L14.94 4.49L14.94 4.49Q14.67 4.44 14.04 4.44L14.04 4.44ZM24.12 7.41L24.12 7.41Q24.43 7.41 24.71 7.57L24.71 7.57L24.71 7.57Q24.99 7.74 24.99 7.98L24.99 7.98L24.99 7.98Q24.99 8.16 24.87 8.29L24.87 8.29L24.87 8.29Q24.75 8.41 24.53 8.41L24.53 8.41L24.53 8.41Q24.40 8.41 24.31 8.37L24.31 8.37L24.31 8.37Q24.22 8.32 24.09 8.22L24.09 8.22L24.09 8.22Q23.97 8.11 23.86 8.05L23.86 8.05L23.86 8.05Q23.74 7.99 23.59 7.99L23.59 7.99L23.59 7.99Q23.41 7.99 23.20 8.14L23.20 8.14L23.20 8.14Q23.00 8.29 22.57 8.79L22.57 8.79L22.57 11.80L22.57 11.80Q22.57 12.22 22.67 12.42L22.67 12.42L22.67 12.42Q22.78 12.61 23.06 12.69L23.06 12.69L23.06 12.69Q23.34 12.77 23.93 12.77L23.93 12.77L23.93 12.77Q23.98 12.77 23.98 12.85L23.98 12.85L23.98 12.85Q23.98 12.94 23.93 12.94L23.93 12.94L23.93 12.94Q23.48 12.94 23.21 12.92L23.21 12.92L22.18 12.91L21.41 12.92L21.41 12.92Q21.22 12.94 20.90 12.94L20.90 12.94L20.90 12.94Q20.86 12.94 20.86 12.85L20.86 12.85L20.86 12.85Q20.86 12.77 20.90 12.77L20.90 12.77L20.90 12.77Q21.28 12.77 21.46 12.69L21.46 12.69L21.46 12.69Q21.64 12.61 21.71 12.42L21.71 12.42L21.71 12.42Q21.77 12.22 21.77 11.80L21.77 11.80L21.77 9.03L21.77 9.03Q21.77 8.55 21.66 8.34L21.66 8.34L21.66 8.34Q21.55 8.13 21.28 8.13L21.28 8.13L21.28 8.13Q21.06 8.13 20.52 8.34L20.52 8.34L20.50 8.34L20.50 8.34Q20.44 8.34 20.42 8.28L20.42 8.28L20.42 8.28Q20.40 8.22 20.45 8.19L20.45 8.19L22.08 7.42L22.08 7.42Q22.11 7.41 22.16 7.41L22.16 7.41L22.16 7.41Q22.29 7.41 22.43 7.73L22.43 7.73L22.43 7.73Q22.57 8.05 22.57 8.55L22.57 8.55L22.57 8.57L22.57 8.57Q23.14 7.90 23.48 7.65L23.48 7.65L23.48 7.65Q23.81 7.41 24.12 7.41L24.12 7.41ZM31.15 12.18L31.18 12.18L31.18 12.18Q31.23 12.18 31.25 12.24L31.25 12.24L31.25 12.24Q31.26 12.31 31.21 12.33L31.21 12.33L29.76 13.02L29.76 13.02Q29.71 13.05 29.65 13.05L29.65 13.05L29.65 13.05Q29.47 13.05 29.33 12.81L29.33 12.81L29.33 12.81Q29.19 12.57 29.15 12.15L29.15 12.15L28.28 12.61L28.28 12.61Q27.85 12.84 27.57 12.94L27.57 12.94L27.57 12.94Q27.29 13.03 27.02 13.03L27.02 13.03L27.02 13.03Q26.59 13.03 26.35 12.80L26.35 12.80L26.35 12.80Q26.12 12.57 26.12 12.22L26.12 12.22L26.12 12.22Q26.12 11.84 26.41 11.61L26.41 11.61L26.41 11.61Q26.70 11.38 27.44 11.13L27.44 11.13L29.13 10.53L29.13 9.37L29.13 9.37Q29.13 8.44 28.90 8.07L28.90 8.07L28.90 8.07Q28.66 7.70 28.24 7.70L28.24 7.70L28.24 7.70Q27.76 7.70 27.50 8.04L27.50 8.04L27.50 8.04Q27.23 8.37 27.17 8.85L27.17 8.85L27.17 8.85Q27.12 9.38 26.66 9.38L26.66 9.38L26.66 9.38Q26.43 9.38 26.31 9.27L26.31 9.27L26.31 9.27Q26.18 9.16 26.18 8.96L26.18 8.96L26.18 8.96Q26.18 8.64 26.60 8.27L26.60 8.27L26.60 8.27Q27.02 7.91 27.61 7.66L27.61 7.66L27.61 7.66Q28.21 7.41 28.69 7.41L28.69 7.41L28.69 7.41Q29.25 7.41 29.58 7.79L29.58 7.79L29.58 7.79Q29.92 8.18 29.92 8.95L29.92 8.95L29.92 11.42L29.92 11.42Q29.92 11.91 30.04 12.14L30.04 12.14L30.04 12.14Q30.17 12.36 30.46 12.36L30.46 12.36L30.46 12.36Q30.73 12.36 31.15 12.18L31.15 12.18ZM28.28 12.39L29.13 11.96L29.13 11.87L29.13 10.70L27.69 11.24L27.69 11.24Q27.37 11.37 27.24 11.52L27.24 11.52L27.24 11.52Q27.10 11.68 27.10 11.91L27.10 11.91L27.10 11.91Q27.10 12.21 27.27 12.37L27.27 12.37L27.27 12.37Q27.44 12.53 27.71 12.53L27.71 12.53L27.71 12.53Q27.97 12.53 28.28 12.39L28.28 12.39ZM31.98 12.94L31.98 12.94Q31.95 12.94 31.95 12.85L31.95 12.85L31.95 12.85Q31.95 12.77 31.98 12.77L31.98 12.77L31.98 12.77Q32.35 12.77 32.54 12.69L32.54 12.69L32.54 12.69Q32.73 12.61 32.80 12.41L32.80 12.41L32.80 12.41Q32.87 12.21 32.87 11.80L32.87 11.80L32.87 9.18L32.87 9.18Q32.87 8.68 32.77 8.46L32.77 8.46L32.77 8.46Q32.66 8.23 32.41 8.23L32.41 8.23L32.41 8.23Q32.16 8.23 31.78 8.43L31.78 8.43L31.77 8.43L31.77 8.43Q31.71 8.43 31.68 8.36L31.68 8.36L31.68 8.36Q31.65 8.29 31.70 8.26L31.70 8.26L33.52 7.42L33.57 7.41L33.57 7.41Q33.60 7.41 33.64 7.44L33.64 7.44L33.64 7.44Q33.68 7.48 33.68 7.52L33.68 7.52L33.68 7.52Q33.68 7.62 33.67 8.08L33.67 8.08L33.67 8.08Q33.66 8.54 33.66 9.17L33.66 9.17L33.66 11.80L33.66 11.80Q33.66 12.22 33.73 12.42L33.73 12.42L33.73 12.42Q33.80 12.61 33.98 12.69L33.98 12.69L33.98 12.69Q34.16 12.77 34.54 12.77L34.54 12.77L34.54 12.77Q34.58 12.77 34.58 12.85L34.58 12.85L34.58 12.85Q34.58 12.94 34.54 12.94L34.54 12.94L34.54 12.94Q34.22 12.94 34.02 12.92L34.02 12.92L33.26 12.91L32.51 12.92L32.51 12.92Q32.31 12.94 31.98 12.94L31.98 12.94ZM33.15 5.77L33.15 5.77Q32.86 5.77 32.70 5.61L32.70 5.61L32.70 5.61Q32.54 5.46 32.54 5.18L32.54 5.18L32.54 5.18Q32.54 4.90 32.70 4.75L32.70 4.75L32.70 4.75Q32.86 4.59 33.15 4.59L33.15 4.59L33.15 4.59Q33.43 4.59 33.59 4.75L33.59 4.75L33.59 4.75Q33.74 4.90 33.74 5.18L33.74 5.18L33.74 5.18Q33.74 5.46 33.59 5.61L33.59 5.61L33.59 5.61Q33.43 5.77 33.15 5.77L33.15 5.77ZM41.99 12.77L41.99 12.77Q42.03 12.77 42.03 12.85L42.03 12.85L42.03 12.85Q42.03 12.94 41.99 12.94L41.99 12.94L41.99 12.94Q41.66 12.94 41.48 12.92L41.48 12.92L40.73 12.91L39.96 12.92L39.96 12.92Q39.77 12.94 39.45 12.94L39.45 12.94L39.45 12.94Q39.41 12.94 39.41 12.85L39.41 12.85L39.41 12.85Q39.41 12.77 39.45 12.77L39.45 12.77L39.45 12.77Q39.83 12.77 40.01 12.69L40.01 12.69L40.01 12.69Q40.19 12.61 40.26 12.42L40.26 12.42L40.26 12.42Q40.32 12.22 40.32 11.80L40.32 11.80L40.32 9.53L40.32 9.53Q40.32 8.71 40.00 8.32L40.00 8.32L40.00 8.32Q39.69 7.92 39.03 7.92L39.03 7.92L39.03 7.92Q38.60 7.92 38.16 8.16L38.16 8.16L38.16 8.16Q37.72 8.39 37.35 8.79L37.35 8.79L37.35 11.80L37.35 11.80Q37.35 12.22 37.41 12.42L37.41 12.42L37.41 12.42Q37.48 12.61 37.66 12.69L37.66 12.69L37.66 12.69Q37.84 12.77 38.22 12.77L38.22 12.77L38.22 12.77Q38.26 12.77 38.26 12.85L38.26 12.85L38.26 12.85Q38.26 12.94 38.22 12.94L38.22 12.94L38.22 12.94Q37.90 12.94 37.72 12.92L37.72 12.92L36.96 12.91L36.19 12.92L36.19 12.92Q36.01 12.94 35.69 12.94L35.69 12.94L35.69 12.94Q35.64 12.94 35.64 12.85L35.64 12.85L35.64 12.85Q35.64 12.77 35.69 12.77L35.69 12.77L35.69 12.77Q36.06 12.77 36.25 12.69L36.25 12.69L36.25 12.69Q36.43 12.61 36.49 12.42L36.49 12.42L36.49 12.42Q36.55 12.22 36.55 11.80L36.55 11.80L36.55 9.03L36.55 9.03Q36.55 8.55 36.44 8.34L36.44 8.34L36.44 8.34Q36.33 8.13 36.06 8.13L36.06 8.13L36.06 8.13Q35.84 8.13 35.31 8.34L35.31 8.34L35.28 8.34L35.28 8.34Q35.22 8.34 35.20 8.28L35.20 8.28L35.20 8.28Q35.18 8.22 35.24 8.19L35.24 8.19L36.86 7.42L36.86 7.42Q36.89 7.41 36.95 7.41L36.95 7.41L36.95 7.41Q37.07 7.41 37.21 7.73L37.21 7.73L37.21 7.73Q37.35 8.05 37.35 8.55L37.35 8.55L37.35 8.55Q37.88 7.94 38.41 7.64L38.41 7.64L38.41 7.64Q38.93 7.35 39.49 7.35L39.49 7.35L39.49 7.35Q40.28 7.35 40.70 7.78L40.70 7.78L40.70 7.78Q41.12 8.22 41.12 9.06L41.12 9.06L41.12 11.80L41.12 11.80Q41.12 12.22 41.18 12.42L41.18 12.42L41.18 12.42Q41.24 12.61 41.43 12.69L41.43 12.69L41.43 12.69Q41.61 12.77 41.99 12.77L41.99 12.77Z"></path></g><!----><g data-v-423bf9ae="" id="8af646d1-d210-44d2-8d10-1a818d851c48" transform="matrix(1.2332091331481934,0,0,1.2332091331481934,0.3393745720386505,-0.002257001819089055)" stroke="none" fill="black"><path d="M47.116 28.615c-.391.66.231.778.969.529 3.414-1.035 6.217-1.46 8.546-1.41a69.803 69.803 0 0 1 6.743-7.402 21.566 21.566 0 0 0-9.275-.691 75.4 75.4 0 0 0-6.983 8.974zM49.597 35.265c2.553 0 1.553 2.069-2.233 4.622s-8.926 4.623-11.479 4.623c-2.553 0-1.553-2.07 2.234-4.623 3.787-2.553 8.926-4.622 11.478-4.622zM87.031 39.217l-.992.706.053-.315zM84.57 40.135l2.051-1.459-.107.648z"></path><path d="M82.3 40.848c2.06-1.23 2.608.223 4.138.405.529.062 1.137-.368 1.344-1.462.387-1.336 1.172-2.111 2.411-2.484-1.88.99-2.614 3.162-1.259 4.798l-3.271 1.79c.462-1.897-.546-3.677-3.363-3.047z"></path><path d="M91.49 37.375c1.232-.045 1.982.929 1.678 2.174a2.964 2.964 0 0 1-.562 1.121l2.298-1.231.311.646L33.77 72.99l-.312-.645 19.433-10.408a5.352 5.352 0 0 1-1.256.182c-2.646.053-4.222-2.061-3.525-4.721.698-2.658 3.408-4.857 6.053-4.911s4.223 2.06 3.525 4.72c-.335 1.273-1.13 2.44-2.158 3.318l13.31-7.129c-.074.006-.149.01-.222.012-2.299.045-3.669-1.79-3.062-4.102.605-2.311 2.959-4.221 5.258-4.266 2.297-.047 3.668 1.789 3.062 4.1-.209.799-.628 1.549-1.181 2.193l9.431-5.053-.045.003c-1.419.052-2.282-1.069-1.931-2.501.352-1.434 1.785-2.636 3.204-2.687 1.419-.052 2.283 1.067 1.931 2.501-.123.5-.377.972-.718 1.377l5.772-3.092c-1.203.02-1.933-.944-1.631-2.174.304-1.243 1.55-2.287 2.782-2.332z"></path><path d="M62.334 48.221l-2.199 1.514.125-.686zM56.908 50.15l4.545-3.129-.258 1.42z"></path><path d="M51.557 51.729c4.559-2.627 5.707.578 9.053 1.029 1.156.156 2.504-.766 2.996-3.153.892-2.917 2.641-4.585 5.369-5.361-4.152 2.106-5.84 6.837-2.928 10.47l-7.23 3.809c1.079-4.142-1.067-8.078-7.26-6.794zM55.297 40.165c.828 0 .504.672-.727 1.502-1.231.829-2.901 1.503-3.73 1.503-.831 0-.504-.674.727-1.503 1.229-.83 2.9-1.502 3.73-1.502zM62.768 30.873c1.404 0 .854 1.139-1.229 2.543-2.082 1.404-4.909 2.542-6.312 2.542-1.404 0-.854-1.137 1.229-2.542s4.907-2.543 6.312-2.543zM78.996 15.086l6.875.436.154 9.986-6.766.642-.263-11.064zM59.334 9.899c4.123-3.396 9.146-2.635 16.322-1.548.607.092 1.234.187 1.779.268h.002l19.023 2.925-10.383-.872-8.747-1.345c-.67-.099-1.23-.184-1.78-.268-5.114-.774-9.106-1.378-12.399-.398-1.809.539-2.78.937-3.817 1.238zM63.882 1.98l18.735 4.271-.601-1.309-.365-.077.192-.921.215.045 1.25-2.849h-.27l.391-.628-2.266.059h-.003c-.731.004-1.335.071-1.796.363-.508.321-.84.774-.971 1.251l-.283-.077c.147-.546.523-1.06 1.098-1.423.503-.319 1.159-.522 1.948-.527l5.623-.146c.979-.023 1.605.125 2.059.43.458.307.727.762.986 1.354l-.27.118c-.24-.544-.482-.96-.881-1.227-.4-.271-.977-.283-1.889-.262l-2.578.067-.389.648h-.316l-1.266 2.887.234.048-.165.792.673 1.467 15.891 3.623.158.854-28.895-5.203c-2.018-1.517-4.102-2.719-6.249-3.628z"></path><path d="M11.176 29.822l.37.103 1.615.447.09.026.072-.06.685-.567-.41-.126-.432.357-1.153-.319.531-.363-.437-.136-.614.42z"></path><path d="M12.107 29.184l.329-.225-.329.225zM52.607 47.412c-.744.211-1.238.185-1.926 1.088-2.959 4.383-7.076 11.758-8.877 13.149-.893.64-.549 2.119-1.089 2.847-8.876 2.776-18.058 4.357-26.817 3.246-1.494-.281-3.768-.422-2.661-3.162.456-1.565-.439-3.176-3.517-4.857-7.557-4.394-8.041-12.081-3.177-22.26-1.76 4.361-1.224 7.53 1.993 8.469 10.458 2.224 23.342-6.789 34.909-18.684-4.812.896-9.619 1.765-14.334 2.176l-.818-1.169c5.047-.321 10.669-1.151 16.337-2.321l.19-.106c.654-.7 1.304-1.4 1.949-2.094 4.313-4.646 8.419-9.07 12.449-12.195l.477-.37-.553-.241c-3.258-1.416-6.979-2.438-11.277-2.972-4.285-.533-9.15-.581-14.706-.055l-.163.056c-3.779 2.476-7.468 5.435-10.787 8.62-3.305 3.17-6.243 6.565-8.542 9.927l-.26.38.435.157c.735.267 1.542.491 2.412.677l-1.816 1.241-.329.225.437.136-.531.363 1.153.32.432-.358.41.126-.685.567-.072.061-.09-.026-1.615-.447-.371-.103.317-.217.614-.42.329-.225.34-.232a32.727 32.727 0 0 1-2.308-.618 50.435 50.435 0 0 0-3.224 4.34l.006-.009-.014.021c-.312.476-.605.943-.878 1.403-5.72 9.24-10.678 19.591-.398 25.942 1.331 1.179 5.496 2.416 3.936 5.61-.476 1.147-.253 2.029.589 2.673l-6.563 2.854.285.655 7.042-3.062c.612.28 1.394.494 2.332.648 9.464.687 18.927-.618 28.391-3.35.816-.625.175-2.576 1.256-3.601 2.941-2.388 5.303-8.152 7.956-12.228.786-1.039 1.007-1.142 2.009-1.424 1.486.368 24.789-8.096 37.184-12.143-12.59 3.658-35.682 11.248-37.771 10.972zM27.445 29.904l.252.358.189.271-.331.011-1.52.052-.104.003-.054-.09-.324-.535-.25-.416c-3.577.218-7.095.139-10.514-.434l1.31-1.085c2.399.335 5.163.428 8.168.318l.304-.012.732 1.213.25.416.41-.015.167.276 1.085-.038-.195-.277.425-.016zM15.586 27.24l4.213-2.881-.072.113-.111.19-3.252 2.692a27.901 27.901 0 0 1-.778-.114zm6.57-3.594l.103-.146.131-.198 3 4.289-.832.039-2.402-3.984zm4.542 5.813c-.331.027-.661.051-.991.073l-.728-1.206c.295-.013.594-.03.894-.046l.825 1.179zm-14.174-2.938c2.23-3.195 5.036-6.413 8.179-9.429 3.264-3.131 6.891-6.044 10.611-8.486 5.458-.513 10.243-.462 14.461.062 3.989.496 7.466 1.415 10.524 2.681-3.924 3.136-7.896 7.413-12.058 11.897-.619.666-1.242 1.338-1.871 2.01-5.764 1.185-11.474 2.016-16.562 2.312l-3.209-4.585 1.876-2.842-.151-.12-2.336 3.24-2.585 3.879.183.138 2.343-3.312 2.218 3.68c-2.662.095-5.124.027-7.297-.229l2.233-1.849-.906 1.545.206.129 1.712-2.688 2.455-4.199-.149-.097-2.12 3.34-.001-.002-5.203 3.557a19.893 19.893 0 0 1-2.553-.632zm.731 2.312l1.486-1.016c.287.055.582.105.88.152l-1.298 1.074a30.5 30.5 0 0 1-1.068-.21z"></path><path d="M19.727 24.473l.072-.113-4.213 2.881c.254.041.514.079.777.114l3.252-2.692.112-.19zM22.39 23.302l-.131.198-.103.146 2.402 3.984.832-.039-3-4.289zM32.471 6.967c9.827-1.473 17.7-.178 26.369 3.013 4.097-3.196 6.819-4.488 9.277-4.734C57.1-1.792 45.126-.418 32.471 6.967zM75.416 35.862l-1.262-25.207-5.857-.574 1.492 24.804c.004 2.706-.589 4.409-1.779 6.029 1.971-.458 3.942-.918 5.914-1.378 1.205-.622 1.569-1.896 1.492-3.674zm-5.137-9.801l-.773-14.605 3.504.273.729 14.059-3.46.273zM86.502 15.562l4.365.277.141 9.196-4.354.413-.152-9.886zM91.498 15.879l3.444.22.132 8.551-3.435.326zM95.574 16.138l2.067.131.125 8.126-2.061.194-.131-8.452zM98.271 16.309l1.712.108.017 7.765-1.604.152zM63.454 20.255a74.545 74.545 0 0 1 1.634-1.507c2.472-2.547-1.232-7.528-2.82-6.696a65.206 65.206 0 0 0-7.033 6.371c3.005-.012 5.693.724 8.219 1.832z"></path></g><!----></svg>