<svg data-v-423bf9ae="" xmlns="http://www.w3.org/2000/svg" viewBox="0 0 264.4706345586785 60" class="font"><!----><!----><!----><g data-v-423bf9ae="" id="7745a6fe-4104-41ff-8df6-1f19a2799506" fill="white" transform="matrix(6.43776798248291,0,0,6.43776798248291,-6.1087260246276855,-24.33476448059082)"><path d="M2.03 5.82L2.03 5.82Q2.03 6.37 2.30 6.78L2.30 6.78L2.30 6.78Q2.56 7.18 2.94 7.46L2.94 7.46L2.94 7.46Q3.32 7.73 4.00 8.15L4.00 8.15L4.00 8.15Q4.73 8.58 5.14 8.88L5.14 8.88L5.14 8.88Q5.54 9.17 5.83 9.63L5.83 9.63L5.83 9.63Q6.12 10.08 6.12 10.71L6.12 10.71L6.12 10.71Q6.12 11.38 5.78 11.93L5.78 11.93L5.78 11.93Q5.45 12.47 4.79 12.79L4.79 12.79L4.79 12.79Q4.14 13.10 3.23 13.10L3.23 13.10L3.23 13.10Q2.16 13.10 1.26 12.61L1.26 12.61L1.26 12.61Q1.19 12.57 1.17 12.52L1.17 12.52L1.17 12.52Q1.15 12.46 1.13 12.35L1.13 12.35L0.95 10.44L0.95 10.44Q0.94 10.39 1.02 10.37L1.02 10.37L1.02 10.37Q1.09 10.36 1.11 10.42L1.11 10.42L1.11 10.42Q1.33 11.42 1.94 12.15L1.94 12.15L1.94 12.15Q2.55 12.88 3.56 12.88L3.56 12.88L3.56 12.88Q4.26 12.88 4.74 12.49L4.74 12.49L4.74 12.49Q5.22 12.11 5.22 11.27L5.22 11.27L5.22 11.27Q5.22 10.64 4.94 10.18L4.94 10.18L4.94 10.18Q4.66 9.72 4.26 9.41L4.26 9.41L4.26 9.41Q3.86 9.11 3.18 8.71L3.18 8.71L3.18 8.71Q2.51 8.30 2.12 8.01L2.12 8.01L2.12 8.01Q1.74 7.71 1.47 7.27L1.47 7.27L1.47 7.27Q1.20 6.82 1.20 6.22L1.20 6.22L1.20 6.22Q1.20 5.52 1.57 5.02L1.57 5.02L1.57 5.02Q1.95 4.52 2.54 4.28L2.54 4.28L2.54 4.28Q3.14 4.03 3.81 4.03L3.81 4.03L3.81 4.03Q4.63 4.03 5.45 4.37L5.45 4.37L5.45 4.37Q5.66 4.44 5.66 4.61L5.66 4.61L5.75 6.22L5.75 6.22Q5.75 6.27 5.68 6.27L5.68 6.27L5.68 6.27Q5.61 6.27 5.60 6.22L5.60 6.22L5.60 6.22Q5.49 5.49 5.00 4.87L5.00 4.87L5.00 4.87Q4.51 4.24 3.58 4.24L3.58 4.24L3.58 4.24Q2.80 4.24 2.42 4.70L2.42 4.70L2.42 4.70Q2.03 5.15 2.03 5.82L2.03 5.82ZM7.32 10.63L7.32 10.63Q7.29 10.64 7.27 10.53L7.27 10.53L7.27 10.53Q7.25 10.42 7.25 10.30L7.25 10.30L7.25 10.30Q7.25 10.04 7.29 10.04L7.29 10.04L10.95 9.38L10.95 9.38Q10.98 9.37 11.00 9.46L11.00 9.46L11.00 9.46Q11.02 9.55 11.02 9.66L11.02 9.66L11.02 9.66Q11.02 9.94 10.95 9.97L10.95 9.97L7.32 10.63ZM14.04 4.44L14.04 4.44Q13.16 4.44 12.72 4.89L12.72 4.89L12.72 4.89Q12.28 5.33 12.08 6.41L12.08 6.41L12.08 6.41Q12.08 6.44 12.01 6.44L12.01 6.44L12.01 6.44Q11.93 6.44 11.93 6.41L11.93 6.41L11.93 6.41Q11.98 5.91 12.05 5.10L12.05 5.10L12.05 5.10Q12.12 4.28 12.12 3.88L12.12 3.88L12.12 3.88Q12.12 3.81 12.20 3.81L12.20 3.81L12.20 3.81Q12.28 3.81 12.28 3.88L12.28 3.88L12.28 3.88Q12.28 4.19 13.03 4.19L13.03 4.19L13.03 4.19Q14.22 4.23 15.85 4.23L15.85 4.23L15.85 4.23Q16.67 4.23 17.60 4.20L17.60 4.20L18.55 4.19L18.55 4.19Q19.05 4.19 19.30 4.12L19.30 4.12L19.30 4.12Q19.54 4.05 19.61 3.84L19.61 3.84L19.61 3.84Q19.63 3.78 19.70 3.78L19.70 3.78L19.70 3.78Q19.77 3.78 19.77 3.84L19.77 3.84L19.77 3.84Q19.73 4.24 19.68 5.07L19.68 5.07L19.68 5.07Q19.64 5.89 19.64 6.41L19.64 6.41L19.64 6.41Q19.64 6.44 19.56 6.44L19.56 6.44L19.56 6.44Q19.47 6.44 19.47 6.41L19.47 6.41L19.47 6.41Q19.43 5.32 19.03 4.88L19.03 4.88L19.03 4.88Q18.62 4.44 17.68 4.44L17.68 4.44L17.68 4.44Q17.05 4.44 16.79 4.49L16.79 4.49L16.79 4.49Q16.52 4.55 16.42 4.73L16.42 4.73L16.42 4.73Q16.32 4.91 16.32 5.35L16.32 5.35L16.32 11.80L16.32 11.80Q16.32 12.24 16.42 12.43L16.42 12.43L16.42 12.43Q16.52 12.63 16.80 12.70L16.80 12.70L16.80 12.70Q17.08 12.77 17.68 12.77L17.68 12.77L17.68 12.77Q17.72 12.77 17.72 12.85L17.72 12.85L17.72 12.85Q17.72 12.94 17.68 12.94L17.68 12.94L17.68 12.94Q17.22 12.94 16.94 12.92L16.94 12.92L15.85 12.91L14.80 12.92L14.80 12.92Q14.52 12.94 14.03 12.94L14.03 12.94L14.03 12.94Q14 12.94 14 12.85L14 12.85L14 12.85Q14 12.77 14.03 12.77L14.03 12.77L14.03 12.77Q14.63 12.77 14.91 12.70L14.91 12.70L14.91 12.70Q15.19 12.63 15.30 12.43L15.30 12.43L15.30 12.43Q15.40 12.22 15.40 11.80L15.40 11.80L15.40 5.32L15.40 5.32Q15.40 4.89 15.30 4.71L15.30 4.71L15.30 4.71Q15.20 4.54 14.94 4.49L14.94 4.49L14.94 4.49Q14.67 4.44 14.04 4.44L14.04 4.44ZM24.12 7.41L24.12 7.41Q24.43 7.41 24.71 7.57L24.71 7.57L24.71 7.57Q24.99 7.74 24.99 7.98L24.99 7.98L24.99 7.98Q24.99 8.16 24.87 8.29L24.87 8.29L24.87 8.29Q24.75 8.41 24.53 8.41L24.53 8.41L24.53 8.41Q24.40 8.41 24.31 8.37L24.31 8.37L24.31 8.37Q24.22 8.32 24.09 8.22L24.09 8.22L24.09 8.22Q23.97 8.11 23.86 8.05L23.86 8.05L23.86 8.05Q23.74 7.99 23.59 7.99L23.59 7.99L23.59 7.99Q23.41 7.99 23.20 8.14L23.20 8.14L23.20 8.14Q23.00 8.29 22.57 8.79L22.57 8.79L22.57 11.80L22.57 11.80Q22.57 12.22 22.67 12.42L22.67 12.42L22.67 12.42Q22.78 12.61 23.06 12.69L23.06 12.69L23.06 12.69Q23.34 12.77 23.93 12.77L23.93 12.77L23.93 12.77Q23.98 12.77 23.98 12.85L23.98 12.85L23.98 12.85Q23.98 12.94 23.93 12.94L23.93 12.94L23.93 12.94Q23.48 12.94 23.21 12.92L23.21 12.92L22.18 12.91L21.41 12.92L21.41 12.92Q21.22 12.94 20.90 12.94L20.90 12.94L20.90 12.94Q20.86 12.94 20.86 12.85L20.86 12.85L20.86 12.85Q20.86 12.77 20.90 12.77L20.90 12.77L20.90 12.77Q21.28 12.77 21.46 12.69L21.46 12.69L21.46 12.69Q21.64 12.61 21.71 12.42L21.71 12.42L21.71 12.42Q21.77 12.22 21.77 11.80L21.77 11.80L21.77 9.03L21.77 9.03Q21.77 8.55 21.66 8.34L21.66 8.34L21.66 8.34Q21.55 8.13 21.28 8.13L21.28 8.13L21.28 8.13Q21.06 8.13 20.52 8.34L20.52 8.34L20.50 8.34L20.50 8.34Q20.44 8.34 20.42 8.28L20.42 8.28L20.42 8.28Q20.40 8.22 20.45 8.19L20.45 8.19L22.08 7.42L22.08 7.42Q22.11 7.41 22.16 7.41L22.16 7.41L22.16 7.41Q22.29 7.41 22.43 7.73L22.43 7.73L22.43 7.73Q22.57 8.05 22.57 8.55L22.57 8.55L22.57 8.57L22.57 8.57Q23.14 7.90 23.48 7.65L23.48 7.65L23.48 7.65Q23.81 7.41 24.12 7.41L24.12 7.41ZM31.15 12.18L31.18 12.18L31.18 12.18Q31.23 12.18 31.25 12.24L31.25 12.24L31.25 12.24Q31.26 12.31 31.21 12.33L31.21 12.33L29.76 13.02L29.76 13.02Q29.71 13.05 29.65 13.05L29.65 13.05L29.65 13.05Q29.47 13.05 29.33 12.81L29.33 12.81L29.33 12.81Q29.19 12.57 29.15 12.15L29.15 12.15L28.28 12.61L28.28 12.61Q27.85 12.84 27.57 12.94L27.57 12.94L27.57 12.94Q27.29 13.03 27.02 13.03L27.02 13.03L27.02 13.03Q26.59 13.03 26.35 12.80L26.35 12.80L26.35 12.80Q26.12 12.57 26.12 12.22L26.12 12.22L26.12 12.22Q26.12 11.84 26.41 11.61L26.41 11.61L26.41 11.61Q26.70 11.38 27.44 11.13L27.44 11.13L29.13 10.53L29.13 9.37L29.13 9.37Q29.13 8.44 28.90 8.07L28.90 8.07L28.90 8.07Q28.66 7.70 28.24 7.70L28.24 7.70L28.24 7.70Q27.76 7.70 27.50 8.04L27.50 8.04L27.50 8.04Q27.23 8.37 27.17 8.85L27.17 8.85L27.17 8.85Q27.12 9.38 26.66 9.38L26.66 9.38L26.66 9.38Q26.43 9.38 26.31 9.27L26.31 9.27L26.31 9.27Q26.18 9.16 26.18 8.96L26.18 8.96L26.18 8.96Q26.18 8.64 26.60 8.27L26.60 8.27L26.60 8.27Q27.02 7.91 27.61 7.66L27.61 7.66L27.61 7.66Q28.21 7.41 28.69 7.41L28.69 7.41L28.69 7.41Q29.25 7.41 29.58 7.79L29.58 7.79L29.58 7.79Q29.92 8.18 29.92 8.95L29.92 8.95L29.92 11.42L29.92 11.42Q29.92 11.91 30.04 12.14L30.04 12.14L30.04 12.14Q30.17 12.36 30.46 12.36L30.46 12.36L30.46 12.36Q30.73 12.36 31.15 12.18L31.15 12.18ZM28.28 12.39L29.13 11.96L29.13 11.87L29.13 10.70L27.69 11.24L27.69 11.24Q27.37 11.37 27.24 11.52L27.24 11.52L27.24 11.52Q27.10 11.68 27.10 11.91L27.10 11.91L27.10 11.91Q27.10 12.21 27.27 12.37L27.27 12.37L27.27 12.37Q27.44 12.53 27.71 12.53L27.71 12.53L27.71 12.53Q27.97 12.53 28.28 12.39L28.28 12.39ZM31.98 12.94L31.98 12.94Q31.95 12.94 31.95 12.85L31.95 12.85L31.95 12.85Q31.95 12.77 31.98 12.77L31.98 12.77L31.98 12.77Q32.35 12.77 32.54 12.69L32.54 12.69L32.54 12.69Q32.73 12.61 32.80 12.41L32.80 12.41L32.80 12.41Q32.87 12.21 32.87 11.80L32.87 11.80L32.87 9.18L32.87 9.18Q32.87 8.68 32.77 8.46L32.77 8.46L32.77 8.46Q32.66 8.23 32.41 8.23L32.41 8.23L32.41 8.23Q32.16 8.23 31.78 8.43L31.78 8.43L31.77 8.43L31.77 8.43Q31.71 8.43 31.68 8.36L31.68 8.36L31.68 8.36Q31.65 8.29 31.70 8.26L31.70 8.26L33.52 7.42L33.57 7.41L33.57 7.41Q33.60 7.41 33.64 7.44L33.64 7.44L33.64 7.44Q33.68 7.48 33.68 7.52L33.68 7.52L33.68 7.52Q33.68 7.62 33.67 8.08L33.67 8.08L33.67 8.08Q33.66 8.54 33.66 9.17L33.66 9.17L33.66 11.80L33.66 11.80Q33.66 12.22 33.73 12.42L33.73 12.42L33.73 12.42Q33.80 12.61 33.98 12.69L33.98 12.69L33.98 12.69Q34.16 12.77 34.54 12.77L34.54 12.77L34.54 12.77Q34.58 12.77 34.58 12.85L34.58 12.85L34.58 12.85Q34.58 12.94 34.54 12.94L34.54 12.94L34.54 12.94Q34.22 12.94 34.02 12.92L34.02 12.92L33.26 12.91L32.51 12.92L32.51 12.92Q32.31 12.94 31.98 12.94L31.98 12.94ZM33.15 5.77L33.15 5.77Q32.86 5.77 32.70 5.61L32.70 5.61L32.70 5.61Q32.54 5.46 32.54 5.18L32.54 5.18L32.54 5.18Q32.54 4.90 32.70 4.75L32.70 4.75L32.70 4.75Q32.86 4.59 33.15 4.59L33.15 4.59L33.15 4.59Q33.43 4.59 33.59 4.75L33.59 4.75L33.59 4.75Q33.74 4.90 33.74 5.18L33.74 5.18L33.74 5.18Q33.74 5.46 33.59 5.61L33.59 5.61L33.59 5.61Q33.43 5.77 33.15 5.77L33.15 5.77ZM41.99 12.77L41.99 12.77Q42.03 12.77 42.03 12.85L42.03 12.85L42.03 12.85Q42.03 12.94 41.99 12.94L41.99 12.94L41.99 12.94Q41.66 12.94 41.48 12.92L41.48 12.92L40.73 12.91L39.96 12.92L39.96 12.92Q39.77 12.94 39.45 12.94L39.45 12.94L39.45 12.94Q39.41 12.94 39.41 12.85L39.41 12.85L39.41 12.85Q39.41 12.77 39.45 12.77L39.45 12.77L39.45 12.77Q39.83 12.77 40.01 12.69L40.01 12.69L40.01 12.69Q40.19 12.61 40.26 12.42L40.26 12.42L40.26 12.42Q40.32 12.22 40.32 11.80L40.32 11.80L40.32 9.53L40.32 9.53Q40.32 8.71 40.00 8.32L40.00 8.32L40.00 8.32Q39.69 7.92 39.03 7.92L39.03 7.92L39.03 7.92Q38.60 7.92 38.16 8.16L38.16 8.16L38.16 8.16Q37.72 8.39 37.35 8.79L37.35 8.79L37.35 11.80L37.35 11.80Q37.35 12.22 37.41 12.42L37.41 12.42L37.41 12.42Q37.48 12.61 37.66 12.69L37.66 12.69L37.66 12.69Q37.84 12.77 38.22 12.77L38.22 12.77L38.22 12.77Q38.26 12.77 38.26 12.85L38.26 12.85L38.26 12.85Q38.26 12.94 38.22 12.94L38.22 12.94L38.22 12.94Q37.90 12.94 37.72 12.92L37.72 12.92L36.96 12.91L36.19 12.92L36.19 12.92Q36.01 12.94 35.69 12.94L35.69 12.94L35.69 12.94Q35.64 12.94 35.64 12.85L35.64 12.85L35.64 12.85Q35.64 12.77 35.69 12.77L35.69 12.77L35.69 12.77Q36.06 12.77 36.25 12.69L36.25 12.69L36.25 12.69Q36.43 12.61 36.49 12.42L36.49 12.42L36.49 12.42Q36.55 12.22 36.55 11.80L36.55 11.80L36.55 9.03L36.55 9.03Q36.55 8.55 36.44 8.34L36.44 8.34L36.44 8.34Q36.33 8.13 36.06 8.13L36.06 8.13L36.06 8.13Q35.84 8.13 35.31 8.34L35.31 8.34L35.28 8.34L35.28 8.34Q35.22 8.34 35.20 8.28L35.20 8.28L35.20 8.28Q35.18 8.22 35.24 8.19L35.24 8.19L36.86 7.42L36.86 7.42Q36.89 7.41 36.95 7.41L36.95 7.41L36.95 7.41Q37.07 7.41 37.21 7.73L37.21 7.73L37.21 7.73Q37.35 8.05 37.35 8.55L37.35 8.55L37.35 8.55Q37.88 7.94 38.41 7.64L38.41 7.64L38.41 7.64Q38.93 7.35 39.49 7.35L39.49 7.35L39.49 7.35Q40.28 7.35 40.70 7.78L40.70 7.78L40.70 7.78Q41.12 8.22 41.12 9.06L41.12 9.06L41.12 11.80L41.12 11.80Q41.12 12.22 41.18 12.42L41.18 12.42L41.18 12.42Q41.24 12.61 41.43 12.69L41.43 12.69L41.43 12.69Q41.61 12.77 41.99 12.77L41.99 12.77Z"></path></g><!----><!----></svg>